<?xml version="1.0" encoding="utf-8"?>
<!-- Generated by IcoMoon.io -->
<!DOCTYPE svg PUBLIC "-//W3C//DTD SVG 1.1//EN" "http://www.w3.org/Graphics/SVG/1.1/DTD/svg11.dtd">
<svg version="1.1" xmlns="http://www.w3.org/2000/svg" xmlns:xlink="http://www.w3.org/1999/xlink" width="20" height="20" viewBox="0 0 20 20">
<path fill="#fff" d="M1.026 13.59c-0.566 0-1.026-0.459-1.026-1.026v-5.128c0-0.566 0.459-1.026 1.026-1.026s1.026 0.459 1.026 1.026v5.128c0 0.566-0.459 1.026-1.026 1.026z"></path>
<path fill="#fff" d="M4.017 16.154c-0.566 0-1.026-0.459-1.026-1.026v-10.257c0-0.566 0.459-1.026 1.026-1.026s1.026 0.459 1.026 1.026v10.257c0 0.566-0.459 1.026-1.026 1.026z"></path>
<path fill="#fff" d="M7.009 14.871c-0.566 0-1.026-0.459-1.026-1.026v-7.692c0-0.566 0.459-1.026 1.026-1.026s1.026 0.459 1.026 1.026v7.692c-0 0.566-0.46 1.026-1.026 1.026z"></path>
<path fill="#fff" d="M10 17.436c-0.566 0-1.026-0.459-1.026-1.026v-12.821c0-0.566 0.459-1.026 1.026-1.026s1.026 0.459 1.026 1.026v12.82c0 0.567-0.459 1.026-1.026 1.026z"></path>
<path fill="#fff" d="M12.991 20c-0.566 0-1.026-0.459-1.026-1.026v-17.949c0-0.566 0.46-1.026 1.026-1.026s1.026 0.459 1.026 1.026v17.949c0 0.566-0.459 1.026-1.026 1.026z"></path>
<path fill="#fff" d="M15.983 16.154c-0.567 0-1.026-0.459-1.026-1.026v-10.257c0-0.566 0.459-1.026 1.026-1.026s1.026 0.459 1.026 1.026v10.257c0 0.566-0.46 1.026-1.026 1.026z"></path>
<path fill="#fff" d="M18.974 12.308c-0.566 0-1.026-0.459-1.026-1.025v-2.564c0-0.566 0.459-1.026 1.026-1.026s1.026 0.459 1.026 1.026v2.564c0 0.566-0.459 1.025-1.026 1.025z"></path>
</svg>
